<?xml version="1.0" encoding="utf-8"?>
<svg version="1.1" id="Ebene_1" xmlns="http://www.w3.org/2000/svg" xmlns:xlink="http://www.w3.org/1999/xlink" x="0px" y="0px"
	 viewBox="0 0 440 67" style="enable-background:new 0 0 440 67;" xml:space="preserve">
<style type="text/css">
	.st0{fill:#161a1d;}
</style>
<g id="_x34_w4UJ4.tif">
	<g>
		<path class="st0" d="M0.3,1.9c8.1,0,16.1,0,24.2,0c0.3,1.1,0.1,1.9-1,2.5c-1.4,0.8-2.8,1.8-4.2,2.8c1.2,3.3,3.1,6.1,5.6,8.4
			c4.5,4.2,9.3,8.1,13.9,12.3c3.8,3.5,7.6,7,11.2,10.7c2.1,2.1,3.8,4.6,4.9,7.4c0.1,0.2,0.2,0.4,0.5,0.5c0-0.4,0-0.8,0-1.2
			c0-12.2,0-24.3,0-36.5c0-0.9-0.2-1.5-1-1.9c-1.3-0.8-2.5-1.7-3.8-2.4c-1-0.6-1.4-1.3-1-2.5c8,0,16.1,0,24.3,0
			c0.3,1,0.2,1.8-0.9,2.4c-1.5,0.8-2.9,1.8-4.3,2.8c-0.3,0.2-0.6,0.8-0.6,1.2c0,16.8,0,33.6,0,50.4c0,0.4,0.3,1,0.7,1.2
			c1.4,1,2.8,2.1,4.3,3c0.9,0.6,1.1,1.2,0.8,2.2c-7.9,0-15.9,0-23.9,0c-0.4-1-0.1-1.7,0.8-2.2c1.4-0.8,2.6-1.7,4.2-2.8
			c-1.4-2.4-2.6-4.8-4.1-7c-3.4-5-7.9-9.1-12.5-13.1c-4.4-3.8-8.8-7.7-13-11.7c-2.9-2.8-5.3-6.1-7-10c0,0.3-0.1,0.6-0.1,0.9
			c0,13.1,0,26.1,0,39.2c0,0.8,0.2,1.2,0.9,1.6c1.4,0.9,2.7,1.9,4.1,2.8c1.1,0.7,1.1,0.7,0.9,2.2c-8,0-16,0-24.1,0
			c-0.3-0.9-0.1-1.5,0.7-2c1.5-1,3-2.1,4.4-3.2c0.3-0.3,0.6-0.8,0.6-1.2c0-16.8,0-33.6,0-50.4c0-0.4-0.3-1-0.7-1.2
			C3.8,6.1,2.5,5.2,1,4.4C0.3,3.8,0,3.1,0.3,1.9z"/>
		<path class="st0" d="M132.6,0.1c10.1,0.1,18.8,2.1,26.4,7.6c7.5,5.4,11.8,12.8,12.7,22c1.1,10.1-2.1,18.9-9.2,26.1
			c-4,4.1-8.8,7-14.2,8.8c-11.2,3.7-22.4,3.5-33.2-1.3c-10.1-4.5-17-11.9-19.5-22.9c-3-13,2.1-26.5,13.8-33.7
			C116.7,2,124.7,0.2,132.6,0.1z M134,57.4c1.2-0.1,3.1-0.2,4.8-0.5c12.7-2.4,21.2-13.9,19.5-26.7c-1.1-8.5-5.8-14.6-13.7-18.1
			c-4.8-2.1-9.8-2.6-15-2c-6.8,0.8-12.6,3.6-16.9,9.1c-6.1,8-6.3,19.2-0.5,27.5C117.4,54,124.7,57.2,134,57.4z"/>
		<path class="st0" d="M366.3,1.9c8,0,15.9,0,23.9,0c0.4,1,0.3,1.8-0.8,2.4c-1.5,0.8-2.9,1.8-4.2,2.8c-0.3,0.2-0.6,0.7-0.6,1.1
			c0,7.7,0,15.5,0,23.2c0,0.1,0,0.1,0.1,0.4c0.4-0.1,0.8-0.2,1.1-0.4c5.5-2.2,11.1-4.4,16.6-6.5c0.5-0.2,1.2-0.2,1.7,0
			c5.4,2.1,10.8,4.3,16.2,6.5c0.4,0.2,0.8,0.3,1.2,0.5c0-0.5,0.1-0.8,0.1-1.1c0-7.4,0-14.8,0-22.2c0-0.7-0.2-1.2-0.8-1.6
			c-1.3-0.8-2.5-1.7-3.7-2.5S415.9,3.7,416,2c7.9,0,15.9,0,23.8,0c0.4,1.1,0,1.9-1,2.5c-1.3,0.8-2.6,1.7-3.8,2.6
			c-0.4,0.3-0.7,0.8-0.7,1.2c0,16.8,0,33.6,0,50.4c0,0.4,0.3,1,0.7,1.3c1.3,1,2.5,1.9,3.9,2.7c1,0.6,1.3,1.4,1,2.5
			c-7.9,0-15.9,0-23.8,0c-0.4-1.1,0-1.8,0.9-2.4c1.4-0.9,2.7-1.9,3.9-2.9c0.4-0.3,0.7-0.9,0.7-1.4c0-5.9,0-11.9,0-17.8
			c0-0.7-0.2-1-0.8-1.2c-5.6-2.2-11.2-4.4-16.8-6.6c-0.4-0.1-0.9-0.1-1.3,0c-5.8,2.3-11.6,4.6-17.4,6.8c-0.5,0.2-0.7,0.5-0.7,1.1
			c0,6,0,12,0,18c0,0.4,0.3,0.9,0.6,1.2c1.3,1,2.8,2,4.1,3c1.1,0.8,1.1,0.8,0.9,2.3c-7.9,0-15.9,0-23.9,0c-0.2-0.9-0.2-1.6,0.8-2.2
			c1.4-0.9,2.7-1.9,4.1-2.9c0.6-0.4,0.8-0.8,0.8-1.5c0-16.7,0-33.4,0-50.1c0-0.7-0.2-1.2-0.8-1.6c-1.3-0.8-2.5-1.8-3.8-2.5
			C366.4,3.8,366,3.1,366.3,1.9z"/>
		<path class="st0" d="M344.2,21.8c-1.4,0.5-2.2-0.1-2.9-0.9c-3.5-3.9-7.7-6.7-12.5-8.6c-9-3.5-18-3.6-26.8,0.6
			c-6.5,3.2-10.7,8.4-11.9,15.7c-1.2,7.5,0.2,14.3,5.3,20.1c3.5,4,8,6.5,13.1,7.7c7.4,1.8,14.5,0.7,21.4-2.3c4.4-2,8.3-4.8,11.5-8.5
			c0.8-0.9,1.5-1.3,2.8-0.9c-0.2,1.1-0.3,2.2-0.5,3.3c-0.6,4-1.2,8-1.9,12.1c-0.1,0.5-0.1,1-0.8,1c-3.3,0-6.3,1.1-9.3,2.3
			c-7,2.9-14.3,4.1-21.8,3.4c-12.3-1.3-22.5-6.5-29.1-17.3c-3.9-6.4-5.1-13.5-4.2-20.9c1.6-12.4,9-20.4,20.2-25.2
			c7.9-3.4,16.2-4.1,24.7-2.8c4.2,0.6,8.1,2,12.1,3.2c2.3,0.7,4.8,1.1,7.2,1.5c0.6,0.1,0.8,0.3,0.9,0.9c0.7,4.5,1.3,8.9,2,13.4
			C344,20.3,344.1,21,344.2,21.8z"/>
		<path class="st0" d="M190.1,20.3c0.5-2.2,0.9-4.3,1.3-6.4c0.8-3.9,1.7-7.9,2.5-11.8c0.2-0.8,0.4-1.2,1.3-1c4.5,0.8,9,0.9,13.5,0.9
			c11.6,0,23.3,0.1,34.9-0.1c3.4,0,6.8-0.5,10.2-0.9c0.8-0.1,1.1,0.1,1.2,0.8c1,6,2,11.9,3,17.8c0.1,0.4-0.1,1.1-0.2,1.1
			c-0.5,0-1,0-1.5-0.2c-0.3-0.2-0.6-0.6-0.8-0.9c-2.1-2.7-4.1-5.4-6.3-8c-0.3-0.4-1-0.8-1.6-0.8c-5.4-0.1-10.8,0-16.2-0.1
			c-0.9,0-1.1,0.3-1.1,1.1c0,15.5,0,31,0,46.4c0,0.9,0.3,1.5,1.1,2c1.4,0.9,2.7,1.9,4.1,2.9c0.9,0.6,0.9,0.7,0.6,2
			c-0.3,0-0.6,0.1-0.9,0.1c-7.3,0-14.6,0-22,0c-0.4,0-0.8-0.3-1.2-0.4c0.2-0.5,0.3-1.2,0.7-1.5c1.4-1.1,2.9-2.1,4.2-3.2
			c0.5-0.4,0.9-1.1,0.9-1.7c0-15.5,0-31,0.1-46.6c0-0.9-0.4-1.2-1.2-1.2c-5.4,0-10.8,0-16.2,0c-0.5,0-1.2,0.4-1.6,0.8
			c-2.2,2.6-4.4,5.3-6.5,8C191.8,20.3,191.2,20.6,190.1,20.3z"/>
	</g>
</g>
</svg>
