<?xml version="1.0" encoding="utf-8"?>
<svg version="1.1" id="Ebene_1" xmlns="http://www.w3.org/2000/svg" xmlns:xlink="http://www.w3.org/1999/xlink" x="0px" y="0px"
	 viewBox="0 0 122 36" style="enable-background:new 0 0 122 36;" xml:space="preserve">
<style type="text/css">
	.st0{fill:#161a1d;}
</style>
<g>
	<g>
		<g>
			<g>
				<g>
					<path class="st0" d="M21.3,27.4H11.1c-0.3,0-0.5-0.1-0.7-0.4L3,14.1c-0.1-0.2-0.1-0.5,0-0.8l7.4-12.9c0.2-0.4,0.7-0.5,1.1-0.3
						c0.4,0.2,0.5,0.7,0.3,1.1L4.6,13.7l7,12.1h9.8c0.4,0,0.8,0.4,0.8,0.8S21.8,27.4,21.3,27.4z"/>
				</g>
			</g>
			<g>
				<g>
					<path class="st0" d="M13.6,23.4c-0.2,0-0.5-0.1-0.7-0.4l-5.1-8.9c-0.1-0.2-0.1-0.5,0-0.8l7.5-12.9C15.4,0.2,15.7,0,16,0h14.9
						c0.4,0,0.8,0.4,0.8,0.8s-0.4,0.8-0.8,0.8H16.4l-7,12.1l4.9,8.5c0.2,0.4,0.1,0.8-0.3,1.1C13.9,23.4,13.8,23.4,13.6,23.4z"/>
				</g>
			</g>
			<g>
				<g>
					<path class="st0" d="M40.7,18.8c-0.2,0-0.5-0.1-0.7-0.4L32.9,5.9h-14L14,14.4c-0.2,0.4-0.7,0.5-1.1,0.3
						c-0.4-0.2-0.5-0.7-0.3-1.1l5.1-8.9c0.1-0.2,0.4-0.4,0.7-0.4h14.9c0.3,0,0.5,0.1,0.7,0.4l7.4,12.9c0.2,0.4,0.1,0.8-0.3,1.1
						C41,18.7,40.9,18.8,40.7,18.8z"/>
				</g>
			</g>
		</g>
		<g>
			<g>
				<g>
					<path class="st0" d="M30.9,36c-0.1,0-0.2-0.1-0.4-0.1c-0.4-0.2-0.5-0.7-0.3-1.1l7.2-12.5l-7-12.1h-9.7c-0.4,0-0.8-0.4-0.8-0.8
						s0.4-0.8,0.8-0.8h10.2c0.3,0,0.5,0.1,0.7,0.4L39,21.9c0.1,0.2,0.1,0.5,0,0.8l-7.4,12.9C31.5,35.8,31.2,36,30.9,36z"/>
				</g>
			</g>
			<g>
				<g>
					<path class="st0" d="M26,35.9H11.1c-0.4,0-0.8-0.4-0.8-0.8s0.4-0.8,0.8-0.8h14.5l7-12.1l-4.9-8.5c-0.2-0.4-0.1-0.8,0.3-1.1
						c0.4-0.2,0.8-0.1,1.1,0.3l5.1,8.9c0.1,0.2,0.1,0.5,0,0.8l-7.5,12.9C26.6,35.8,26.3,35.9,26,35.9z"/>
				</g>
			</g>
			<g>
				<g>
					<path class="st0" d="M23.7,31.6h-15c-0.3,0-0.5-0.1-0.7-0.4L0.6,18.4c-0.2-0.4-0.1-0.9,0.2-1.1c0.4-0.2,0.8-0.1,1.1,0.3
						l7.2,12.5h14l4.9-8.5c0.2-0.4,0.7-0.5,1.1-0.3s0.5,0.7,0.3,1.1l-5.1,8.8C24.1,31.5,23.9,31.6,23.7,31.6z"/>
				</g>
			</g>
		</g>
	</g>
	<g>
		<path class="st0" d="M67.7,15.3h-1.9c-0.5-1.5-1.3-2.7-2.5-3.6c-1.2-1-2.6-1.5-4.3-1.5c-2.2,0-4,0.8-5.4,2.3s-2.1,3.5-2.1,6
			s0.7,4.4,2.1,6c1.4,1.6,3.1,2.3,5.4,2.3c1.6,0,3.1-0.5,4.3-1.5c1.1-1,2-2.2,2.5-3.6h1.6h2.5c-0.6,2.4-1.9,4.4-3.7,6
			c-1.8,1.6-4.2,2.4-7.1,2.4c-3.6,0-6.4-1.1-8.5-3.4c-2.2-2.2-3.3-5-3.3-8.3s1.1-6,3.3-8.3c2.1-2.2,5-3.4,8.5-3.4
			c2.9,0,5.3,0.8,7.1,2.4c1.9,1.6,3.1,3.6,3.7,6h-2.2V15.3z"/>
		<path class="st0" d="M77.1,4.7v2.7V11v1.3v3.2v3.4V25v4.8h-4V25v-6.3v-3.4V12V7V4.7H77.1z"/>
		<path class="st0" d="M83.3,13.7c1.7-1.8,4-2.7,6.8-2.7s5,0.9,6.8,2.7s2.6,4.1,2.6,6.8V21c0,0.2-0.1,0.4-0.1,0.5h-1.6h-0.7h-1.8
			H84.9c0.2,1.4,0.7,2.5,1.5,3.4c1,1.1,2.4,1.7,4.1,1.7c1,0,1.9-0.2,2.5-0.7c0.7-0.4,1.3-1,1.7-1.7h0.5h0.2h1.5h2.3
			c-0.7,1.7-1.8,3.1-3.3,4.1s-3.4,1.5-5.5,1.5c-3,0-5.3-0.9-7-2.7c-1.8-1.8-2.6-4.1-2.6-6.8C80.8,17.7,81.7,15.5,83.3,13.7z
			 M95.4,19c-0.2-1.2-0.6-2.2-1.3-3c-0.9-1.1-2.2-1.7-3.9-1.7c-1.7,0-3,0.5-3.9,1.7c-0.7,0.8-1.1,1.8-1.3,3H95.4z"/>
		<path class="st0" d="M104.6,13.7c1.8-1.8,4.1-2.7,7.1-2.7s5.4,0.9,7.1,2.7c1.8,1.8,2.6,4.1,2.6,6.8s-0.8,5.1-2.6,6.8
			c-1.7,1.8-4.1,2.7-7.1,2.7h-0.1c-3,0-5.4-0.9-7.1-2.7c-1.8-1.8-2.6-4.1-2.6-6.8C102,17.7,102.9,15.5,104.6,13.7z M115.8,16
			c-1-1.1-2.4-1.8-4.1-1.8s-3,0.6-4.1,1.8c-1,1.1-1.6,2.7-1.6,4.5s0.5,3.3,1.6,4.5c1,1.1,2.4,1.7,4.1,1.7s3.1-0.5,4.1-1.7
			c1-1.1,1.6-2.7,1.6-4.5S116.8,17.2,115.8,16z"/>
	</g>
</g>
</svg>
