<?xml version="1.0" encoding="utf-8"?>
<svg version="1.1" id="Ebene_1" xmlns="http://www.w3.org/2000/svg" xmlns:xlink="http://www.w3.org/1999/xlink" x="0px" y="0px"
	 viewBox="0 0 195 36" style="enable-background:new 0 0 195 36;" xml:space="preserve">
<style type="text/css">
	.st0{fill:#161a1d;}
</style>
<g>
	<path class="st0" d="M5.9,0.8L16.2,27l9.1-23.6l9.3,23.7l10-26.3h2.8L34.1,35.6h-1.7L23.9,14l-8.2,21.5h-2L0.2,0.8H5.9z"/>
	<path class="st0" d="M59.3,0l16.2,35.2h-5.9l-5.3-11.5H49.6l-5.4,11.5h-2.9L57.9,0H59.3z M50.6,21.5h12.7L57,8L50.6,21.5z"/>
	<path class="st0" d="M80.8,0.8h5.7V33h17.3v2.2H80.7V0.8H80.8z"/>
	<path class="st0" d="M160.3,0.8V3h-18.1v12.4h12.1v2.2h-12.1V33h18.1v2.2h-24V0.8H160.3z"/>
	<path class="st0" d="M166.4,0.8h3.2L192.1,26h0.2V0.8h2.5V36h-1.2L169.2,8.1H169v27.2h-2.7L166.4,0.8L166.4,0.8z"/>
	<path class="st0" d="M129.4,10.6c-1-2.1-2.4-4.1-4.4-5.7c-1.7-1.4-3.9-2.5-6.4-3.2s-5.6-1-9.2-1H97.9v27.2h5.9V3.3h6.2
		c2.1,0,4,0.3,5.6,1.1c1.8,0.7,3.2,1.7,4.4,3s2.2,2.9,2.9,4.6c0.7,1.8,1,3.8,1,5.9c0,2.4-0.3,4.5-1.1,6.4c-0.8,1.9-1.8,3.4-3,4.6
		c-1.3,1.2-2.8,2.2-4.5,2.9c-1.8,0.7-3.5,1-5.5,1h-1v2.5h1.9c3.2,0,6.1-0.4,8.5-1.4c2.4-0.9,4.5-2.2,6.3-3.8c1.7-1.5,3-3.4,3.9-5.6
		c0.9-2.1,1.3-4.4,1.3-6.8C130.8,15.1,130.4,12.8,129.4,10.6z"/>
</g>
</svg>
