<?xml version="1.0" encoding="utf-8"?>
<svg version="1.1" id="Ebene_1" xmlns="http://www.w3.org/2000/svg" xmlns:xlink="http://www.w3.org/1999/xlink" x="0px" y="0px"
	 viewBox="0 0 82 36" style="enable-background:new 0 0 82 36;" xml:space="preserve">
<style type="text/css">
	.st0{fill:#1e1e1e;}
</style>
<g>
	<path class="st0" d="M15.5,21.5c-0.6,0.4-0.9,1.1-0.9,1.9c0,0.7,0.3,1.3,0.8,1.7c0.6,0.4,1.3,0.7,2.3,0.7c1.5,0,2.6-0.4,3.4-1.2
		c0.8-0.8,1.2-1.8,1.3-3.1v-0.6H18C16.9,20.9,16.1,21.1,15.5,21.5z"/>
	<path class="st0" d="M49.8,21.5c-0.6,0.4-0.9,1.1-0.9,1.9c0,0.7,0.3,1.3,0.8,1.7c0.6,0.4,1.3,0.7,2.3,0.7c1.5,0,2.6-0.4,3.4-1.2
		s1.2-1.8,1.3-3.1v-0.6h-4.4C51.2,20.9,50.4,21.1,49.8,21.5z"/>
	<path class="st0" d="M81.6,16.6c0-4.4-3.5-7.8-7.8-7.8c-0.4,0-0.9,0-1.3,0.1c0.1-0.3,0.1-0.7,0.1-1c0-3.6-3-6.5-6.5-6.5
		c-3,0-5.6,2-6.3,4.8c-1.1-0.3-2.2-0.4-3.3-0.4S54.3,6,53.2,6.2c-0.6-1.3-2-2.2-3.5-2.2c-0.9,0-1.7,0.3-2.4,0.8
		C46.8,2,44.4,0,41.6,0c-2.9,0-5.3,2.1-5.7,4.9c-1.7-1.4-4-2.2-6.3-2.2c-2.9,0-5.5,1.2-7.3,3.2c-1.3-0.3-2.6-0.6-4-0.6
		c-2.6,0-5,0.6-7.1,1.8c-1-0.5-2.1-0.8-3.3-0.8c-4.1,0-7.4,3.4-7.4,7.4c0,2.3,1,4.3,2.6,5.6c0,0.4-0.1,0.9-0.1,1.4
		C2.9,29.2,9.8,36,18.3,36c2.6,0,5-0.6,7-1.7c1.3,0.7,2.9,1.1,4.5,1.1c3.4,0,6.2-1.8,7.9-4.5c1.4,1.5,3.3,2.4,5.4,2.4
		c1.4,0,2.8-0.4,3.9-1.1c2.4,2.1,5.6,3.4,8.9,3.4c3.2,0,6.1-1.1,8.4-3c1.4,1.4,3.3,2.2,5.5,2.2c4.4,0,7.8-3.5,7.8-7.8
		c0-1.2-0.3-2.3-0.7-3.3C79.7,22.6,81.6,19.8,81.6,16.6z M27.7,28.4h-1.9c-1.1,0-1.9-0.2-2.4-0.7s-0.7-1.1-0.7-2
		c-1.3,1.9-3.1,2.9-5.5,2.9c-1.9,0-3.4-0.4-4.5-1.3S11,25.2,11,23.7c0-1.7,0.6-3,1.8-4c1.2-0.9,3-1.4,5.3-1.4h4.2v-1
		c0-0.9-0.3-1.7-1-2.2s-1.6-0.8-2.7-0.8c-1,0-1.9,0.2-2.5,0.7c-0.7,0.4-1.1,1-1.2,1.8h-3.5c0.2-1.7,0.9-3,2.2-3.9s3-1.4,5.1-1.4
		c2.2,0,4,0.5,5.2,1.6c1.2,1,1.8,2.6,1.8,4.5v6.5c0,0.8,0.4,1.2,1.1,1.2l0.9-0.1C27.7,25.3,27.7,28.4,27.7,28.4z M38.1,15h-1.6
		c-1.5,0-2.5,0.5-3.2,1.4s-1,2.2-1,3.6v8.3h-3.5V11.7H32l0.4,2.5c0.5-0.8,1.1-1.4,1.9-1.8c0.8-0.4,1.8-0.7,3.1-0.7h0.8
		C38.1,11.7,38.1,15,38.1,15z M43.2,28.4h-3.5V11.7h3.5V28.4z M43,8.6c-0.4,0.4-0.9,0.6-1.5,0.6S40.4,9,40,8.6s-0.6-0.9-0.6-1.5
		S39.6,6,40,5.7c0.4-0.4,0.9-0.6,1.5-0.6C42.1,5,42.6,5.2,43,5.7c0.4,0.4,0.6,0.9,0.6,1.5S43.4,8.2,43,8.6z M61.9,28.4H60
		c-1.1,0-1.9-0.2-2.4-0.7s-0.7-1.1-0.7-2c-1.3,1.9-3.1,2.9-5.5,2.9c-1.9,0-3.4-0.4-4.5-1.3s-1.7-2.1-1.7-3.6c0-1.7,0.6-3,1.8-4
		c1.2-0.9,3-1.4,5.3-1.4h4.2v-1c0-0.9-0.3-1.7-1-2.2s-1.6-0.8-2.7-0.8c-1,0-1.9,0.2-2.5,0.7c-0.7,0.4-1.1,1-1.2,1.8h-3.5
		c0.2-1.7,0.9-3,2.2-3.9s3-1.4,5.1-1.4c2.2,0,4,0.5,5.2,1.6c1.2,1,1.8,2.6,1.8,4.5v6.5c0,0.8,0.4,1.2,1.1,1.2l0.9-0.1
		C61.9,25.3,61.9,28.4,61.9,28.4z M67.3,28.4h-3.5V5.6h3.5V28.4z"/>
</g>
</svg>
