<?xml version="1.0" encoding="utf-8"?>
<svg version="1.1" id="Ebene_1" xmlns="http://www.w3.org/2000/svg" xmlns:xlink="http://www.w3.org/1999/xlink" x="0px" y="0px"
	 viewBox="0 0 194 36" style="enable-background:new 0 0 194 36;" xml:space="preserve">
<style type="text/css">
	.st0{fill:#161a1d;}
</style>
<g>
	<path class="st0" d="M9,18.8v16.5H0.2V0.5h22.7v2H9V17h12.7v2H9V18.8z"/>
	<path class="st0" d="M25.4,17.9C25.4,6.4,34,0,43.5,0s18.1,6.5,18.1,17.9c0,11.3-8.2,18.1-18.1,18.1S25.4,29.2,25.4,17.9z
		 M52.2,17.9c0-11.3-2.9-16.1-8.6-16.1c-5.9,0-8.6,4.8-8.6,16.1s2.7,16.5,8.6,16.5S52.2,29.2,52.2,17.9z"/>
	<path class="st0" d="M65,17.9C65,6.4,73.5,0,83.1,0s18.1,6.5,18.1,17.9C101.2,29.2,93,36,83.1,36S65,29.2,65,17.9z M91.8,17.9
		c0-11.3-2.9-16.1-8.6-16.1c-5.9,0-8.6,4.8-8.6,16.1s2.7,16.5,8.6,16.5S91.8,29.2,91.8,17.9z"/>
	<path class="st0" d="M106.7,0.5h12c11.5,0,20.6,4.8,20.6,17c0,12.4-9,17.6-20.6,17.6h-12C106.7,35.1,106.7,0.5,106.7,0.5z
		 M118.5,33.5c7.4,0,11.3-5.2,11.3-15.8c0-10.4-4-15.3-11.3-15.3h-3.2v31.1H118.5z"/>
	<path class="st0" d="M144.5,17.9c0-5.6,4.2-8.6,8.8-8.6s8.8,3.1,8.8,8.6c0,5.4-4,8.8-8.8,8.8S144.5,23.3,144.5,17.9z M157.5,17.9
		c0-5.4-1.4-7.7-4.2-7.7c-2.7,0-4.3,2.3-4.3,7.7s1.2,7.9,4.2,7.9C156,25.8,157.5,23.3,157.5,17.9z"/>
	<path class="st0" d="M165.2,25.2h7.7c0.2,5.4,2.5,8.6,7,8.6c4,0,7-2.2,7-5.7c0-3.2-2.3-4.8-7-6.1l-3.2-0.9c-6.6-1.6-10-4.3-10-9.9
		c0-6.5,6.1-10.8,13.5-10.8c7.1,0,12.5,3.2,13.3,8.8h-7.6c-0.2-4.6-2.3-7.4-6.1-7.4c-4,0-6.5,2.3-6.5,5.6c0,3.1,1.8,4.5,6.1,5.6
		l3.6,0.9c6.6,1.8,10.8,4.5,10.8,10.2c0,7.1-6.6,10.8-13.9,10.8C171.6,35.3,165.8,32,165.2,25.2z"/>
</g>
</svg>
