<?xml version="1.0" encoding="utf-8"?>
<svg version="1.1" id="Ebene_1" xmlns="http://www.w3.org/2000/svg" xmlns:xlink="http://www.w3.org/1999/xlink" x="0px" y="0px"
	 viewBox="0 0 154 36" style="enable-background:new 0 0 154 36;" xml:space="preserve">
<style type="text/css">
	.st0{fill:#302c2c;}
</style>
<g>
	<g>
		<g>
			<path class="st0" d="M54,12.1c0.5,0,0.9,0,1,0.1s0.1,0.2,0.1,0.6c0,0.2,0.1,0.5,0.2,0.5c0.1,0,0.4-0.1,0.9-0.5
				c0.4-0.2,0.7-0.5,1.3-0.6c0.5-0.1,1-0.2,1.5-0.2c1,0,1.9,0.4,2.7,1.1c0.6,0.5,1.1,1.2,1.5,2.1s0.5,1.7,0.5,2.7
				c0,2.1-0.7,3.6-2.1,5c-1.1,1-2.2,1.6-3.5,1.6c-0.7,0-1.3-0.1-2.1-0.5c-0.1-0.1-0.2-0.1-0.4-0.1s-0.4,0.2-0.4,0.7
				c0,0.6,0.2,1.1,0.6,1.3s0.6,0.5,0.7,0.5c0.1,0.1,0.1,0.2,0.1,0.5c0,0.5-0.2,0.9-0.9,1.1c-0.5,0.2-1.3,0.4-2.3,0.4
				c-1.7,0-3.3-0.4-4.6-1.1c-0.6-0.4-1-0.7-1-1.3c0-0.2,0-0.4,0.1-0.5s0.2-0.2,0.6-0.4c0.4-0.2,0.7-0.5,0.7-1.1
				c0.1-0.5,0.1-1.9,0.2-4.4c0-1.9-0.1-3-0.2-3.3c0-0.1-0.1-0.1-0.1-0.1S49,16,48.6,16c-0.2,0-0.5-0.1-0.6-0.4
				c-0.1-0.2-0.2-0.4-0.2-0.7s0.1-0.6,0.4-0.9c0.2-0.2,0.6-0.5,1.1-0.7C51.3,12.6,52.9,12.1,54,12.1z M55.2,16.6l-0.1,3.3
				c0,0.1,0,0.2,0,0.4c0,0.2,0.1,0.5,0.4,0.6c0.2,0.1,0.5,0.2,0.9,0.2c1.1,0,1.7-0.9,1.7-2.7c0-1.2-0.2-1.9-0.7-2.4
				c-0.2-0.2-0.6-0.5-1-0.5C55.6,15.5,55.2,15.9,55.2,16.6z"/>
			<path class="st0" d="M75.6,18.6H70c-0.2,0-0.4,0.1-0.4,0.4c0,0.5,0.2,1,0.9,1.5s1.2,0.7,1.8,0.7c0.4,0,0.9-0.1,1.3-0.2
				c0.5-0.1,0.9-0.4,1.2-0.5c0.2-0.2,0.5-0.2,0.6-0.2c0.2,0,0.4,0.1,0.6,0.4c0.2,0.2,0.2,0.5,0.2,0.9c0,0.6-0.4,1.1-1.1,1.7
				c-1.2,1-2.8,1.5-4.4,1.5c-1.7,0-3-0.5-4.3-1.5c-0.6-0.5-1-1.1-1.3-1.7c-0.5-0.9-0.7-1.8-0.7-2.9c0-1.3,0.4-2.6,1.2-3.6
				c0.7-1,1.6-1.6,2.7-2.1c0.9-0.4,1.7-0.5,2.7-0.5c1.6,0,2.8,0.5,3.9,1.3c0.5,0.5,1,1,1.3,1.6c0.4,0.7,0.6,1.3,0.6,1.9
				c0,0.5-0.1,1-0.4,1.3C76.2,18.4,76,18.6,75.6,18.6z M70.3,16.4h1.2c0.5,0,0.7-0.2,0.7-0.7s-0.1-0.7-0.4-1.1
				c-0.2-0.2-0.6-0.4-1-0.4c-0.5,0-0.9,0.1-1.1,0.5s-0.4,0.6-0.4,1c0,0.2,0,0.4,0.1,0.5C69.8,16.4,70,16.4,70.3,16.4z"/>
			<path class="st0" d="M84.5,15.2v4c0,0.5,0.1,0.9,0.4,1.2c0.2,0.4,0.5,0.5,0.9,0.5s0.7-0.1,1.2-0.5c0.2,0,0.4,0,0.5,0
				c0.2,0,0.4,0.1,0.5,0.4c0.1,0.2,0.2,0.5,0.2,0.7c0,0.5-0.2,1-0.9,1.5c-1.1,1-2.6,1.5-4.1,1.5c-1.3,0-2.3-0.4-3-1.1
				S79,21.7,79,20.5v-5.6c0-0.2,0-0.2-0.1-0.4c0,0-0.1-0.1-0.4-0.1h-1.2c-0.2,0-0.4,0-0.5-0.1s-0.1-0.2-0.1-0.5v-0.5
				c0-0.2,0.1-0.4,0.2-0.5l5.7-3.5c0.1-0.1,0.4-0.1,0.5-0.1h1c0.2,0,0.4,0,0.4,0.1c0.1,0.1,0.1,0.2,0.1,0.5v1.6c0,0.2,0,0.4,0.1,0.5
				s0.2,0.1,0.5,0.1h2.2c0.2,0,0.5,0,0.6,0.1s0.1,0.4,0.1,0.7v0.7c0,0.4,0,0.6-0.1,0.9c-0.1,0.1-0.4,0.2-0.6,0.2h-2.2
				c-0.2,0-0.4,0-0.5,0.1C84.5,14.8,84.5,14.9,84.5,15.2z"/>
			<path class="st0" d="M93.6,12c0.4,0,1.1,0.1,1.9,0.2c0.2,0,0.4,0,0.5,0s0.4-0.1,0.9-0.2c0.2-0.1,0.4-0.1,0.5-0.1
				c0.4,0,0.7,0.2,1.1,0.7c0.4,0.4,0.6,0.7,0.7,1.2c0.2,0.5,0.2,0.9,0.2,1.2c0,0.4-0.1,0.6-0.4,0.9c-0.2,0.2-0.5,0.4-0.9,0.4
				c-0.2,0-0.5-0.1-0.7-0.2s-0.6-0.5-1.1-0.9c-0.5-0.5-1-0.7-1.2-0.7s-0.4,0.1-0.6,0.2c-0.1,0.1-0.2,0.4-0.2,0.6
				c0,0.4,0.4,0.7,1.1,1.1c1.3,0.6,2.4,1.2,3.2,1.9c0.6,0.6,1,1.3,1,2.2c0,1.1-0.5,2.1-1.5,2.8c-0.9,0.6-1.8,1-3,1
				c-0.4,0-0.9,0-1.7-0.1C92.6,24,92.1,24,92,24s-0.2,0-0.4,0c-0.2,0-0.4,0-0.5,0c-0.4,0-0.7-0.1-0.9-0.2c-0.4-0.2-0.6-0.7-1-1.5
				c-0.2-0.6-0.4-1.2-0.4-1.6c0-0.7,0.2-1.1,0.9-1.1c0.2,0,0.5,0.1,0.6,0.2c0.2,0.1,0.6,0.5,1.2,1.2c0.4,0.4,0.6,0.6,0.9,0.7
				c0.2,0.1,0.5,0.2,0.7,0.2s0.5-0.1,0.6-0.2s0.2-0.4,0.2-0.6c0-0.4-0.4-0.7-1-1c-1.3-0.6-2.2-1.3-2.8-1.9c-0.6-0.7-0.9-1.5-0.9-2.3
				c0-1,0.2-1.8,0.9-2.4C90.9,12.5,92.1,12,93.6,12z"/>
			<path class="st0" d="M106.3,12.1c0.5,0,0.9,0,1,0.1s0.1,0.2,0.1,0.6c0,0.2,0.1,0.5,0.2,0.5s0.4-0.1,0.9-0.5
				c0.4-0.2,0.7-0.5,1.3-0.6c0.5-0.1,1-0.2,1.5-0.2c1,0,1.9,0.4,2.7,1.1c0.6,0.5,1.1,1.2,1.5,2.1s0.5,1.7,0.5,2.7
				c0,2.1-0.7,3.6-2.1,5c-1.1,1-2.2,1.6-3.5,1.6c-0.7,0-1.3-0.1-2.1-0.5c-0.1-0.1-0.2-0.1-0.4-0.1c-0.2,0-0.4,0.2-0.4,0.7
				c0,0.6,0.2,1.1,0.6,1.3s0.6,0.5,0.7,0.5c0.1,0.1,0.1,0.2,0.1,0.5c0,0.5-0.2,0.9-0.9,1.1c-0.5,0.2-1.3,0.4-2.3,0.4
				c-1.7,0-3.3-0.4-4.6-1.1c-0.6-0.4-1-0.7-1-1.3c0-0.2,0-0.4,0.1-0.5s0.2-0.2,0.6-0.4c0.4-0.2,0.7-0.5,0.7-1.1
				c0.1-0.5,0.1-1.9,0.2-4.4c0-1.9-0.1-3-0.2-3.3c0-0.1-0.1-0.1-0.1-0.1S101.3,16,101,16c-0.2,0-0.5-0.1-0.6-0.4
				c-0.1-0.2-0.2-0.4-0.2-0.7s0.1-0.6,0.4-0.9c0.2-0.2,0.6-0.5,1.1-0.7C103.7,12.6,105.1,12.1,106.3,12.1z M107.5,16.6l-0.1,3.3
				c0,0.1,0,0.2,0,0.4c0,0.2,0.1,0.5,0.4,0.6c0.2,0.1,0.5,0.2,0.9,0.2c1.1,0,1.7-0.9,1.7-2.7c0-1.2-0.2-1.9-0.7-2.4
				c-0.2-0.2-0.6-0.5-1-0.5C107.9,15.5,107.5,15.9,107.5,16.6z"/>
			<path class="st0" d="M123.6,14.4v3.9c0,1.7,0,2.7,0.1,2.9c0,0.2,0.2,0.5,0.6,0.6c0.2,0.1,0.5,0.2,0.6,0.4
				c0.1,0.1,0.1,0.2,0.1,0.5c0,0.2-0.1,0.5-0.2,0.7c-0.2,0.2-0.5,0.4-0.7,0.5c-0.6,0.1-1.6,0.2-2.9,0.2c-1.6,0-2.7-0.1-3.3-0.4
				c-0.2-0.1-0.5-0.2-0.7-0.5c-0.2-0.2-0.2-0.5-0.2-0.7s0-0.4,0.1-0.5s0.4-0.2,0.6-0.4c0.4-0.1,0.5-0.5,0.6-1.1
				c0.1-1.1,0.2-2.6,0.2-4.5s0-3.2-0.1-3.8s-0.4-1-0.9-1.2c-0.4-0.2-0.6-0.4-0.7-0.5s-0.2-0.2-0.2-0.5c0-0.4,0.2-0.7,0.6-1
				c0.4-0.2,1-0.6,1.8-0.9c0.6-0.1,1.2-0.4,2.2-0.5c0.9-0.1,1.6-0.2,1.9-0.2c0.6,0,1,0.4,1,1.2c0,0.2,0,0.9-0.1,1.8
				C123.7,12,123.7,13.3,123.6,14.4z"/>
			<path class="st0" d="M132.6,12c1.3,0,2.6,0.4,3.5,1.1c0.5,0.4,0.9,0.9,1.1,1.3c0.2,0.5,0.4,1.1,0.4,1.9v1.8
				c0,1.2,0.1,2.1,0.2,2.4c0.1,0.1,0.1,0.2,0.2,0.4c0.1,0,0.2,0.1,0.5,0.1s0.4,0.2,0.4,0.5c0,0.4-0.1,0.7-0.5,1.2
				c-0.4,0.4-0.7,0.7-1.2,1.1c-0.6,0.4-1.2,0.5-1.9,0.5c-0.9,0-1.5-0.2-1.9-0.9c-0.1-0.2-0.4-0.4-0.5-0.4s-0.4,0.1-0.6,0.2
				c-0.9,0.6-1.7,0.9-2.7,0.9c-1.1,0-1.9-0.2-2.6-0.7c-0.4-0.2-0.7-0.7-1-1.2c-0.2-0.5-0.4-1-0.4-1.5c0-0.9,0.4-1.6,1-2.2
				c1.1-1,2.7-1.5,4.7-1.6c0.5,0,0.7,0,0.9-0.1c0.1-0.1,0.1-0.4,0.1-0.6c0-0.9-0.1-1.5-0.2-1.8s-0.5-0.6-0.9-0.6
				c-0.2,0-0.5,0.1-0.6,0.2c-0.2,0.1-0.4,0.4-0.7,0.9c-0.7,1-1.5,1.6-2.2,1.6c-0.4,0-0.7-0.1-1-0.4s-0.4-0.5-0.4-1
				c0-0.4,0.1-0.7,0.5-1.1s0.7-0.7,1.2-1C129.5,12.4,131,12,132.6,12z M131.8,18.9c-0.4,0-0.6,0.1-1,0.5c-0.2,0.2-0.4,0.6-0.4,1
				s0.1,0.7,0.2,1c0.2,0.2,0.5,0.4,0.7,0.4c0.6,0,1-0.5,1-1.6c0-0.5,0-0.7-0.1-0.9C132.2,19,132.1,18.9,131.8,18.9z"/>
			<path class="st0" d="M150.4,18l-1.6,4.4c-0.4,1.1-0.7,1.9-1.2,2.7c-0.4,0.7-0.9,1.2-1.3,1.7c-1.1,1-2.3,1.5-3.8,1.5
				c-1.2,0-2.2-0.4-2.9-1c-0.6-0.5-0.9-1.1-0.9-1.8c0-0.6,0.2-1.1,0.6-1.6c0.4-0.4,0.9-0.6,1.5-0.6s1.1,0.2,1.3,0.6
				c0.1,0.1,0.2,0.4,0.4,0.5c0,0.1,0.1,0.5,0.2,0.9c0.1,0.4,0.2,0.5,0.6,0.5c0.2,0,0.5-0.1,0.6-0.4c0.1-0.2,0.2-0.5,0.2-0.9
				s-0.2-1-0.6-1.9l-2.9-6.2c-0.4-0.6-0.5-1.1-0.7-1.2c-0.1-0.1-0.5-0.4-1-0.6c-0.1-0.1-0.2-0.2-0.4-0.4s-0.1-0.4-0.1-0.5
				c0-0.7,0.7-1.2,2.1-1.5c1-0.1,2.1-0.2,3.3-0.2c0.9,0,1.5,0.1,1.9,0.2c0.6,0.2,1,0.6,1,1.2c0,0.2-0.1,0.5-0.2,0.7
				c-0.1,0.2-0.2,0.5-0.2,0.7s0,0.4,0.1,0.6s0.2,0.6,0.5,1.1c0.4,0.6,0.6,0.9,0.9,0.9c0.2,0,0.5-0.2,0.7-0.7s0.4-1,0.4-1.5
				c0-0.4-0.1-0.6-0.2-0.9c-0.4-0.4-0.5-0.6-0.5-1s0.2-0.7,0.9-1c0.5-0.2,1.2-0.4,2.2-0.4c1.7,0,2.6,0.4,2.6,1.2
				c0,0.2-0.1,0.5-0.2,0.7c-0.1,0.1-0.5,0.4-1,0.5c-0.4,0.1-0.7,0.4-1,0.7C151.3,15.8,150.9,16.7,150.4,18z"/>
		</g>
	</g>
	<g>
		<g>
			<g>
				<path class="st0" d="M6.7,31.2c-1,0.2-1.3,0.5-1.9,1c0,0.9,0.1,1.6,0.1,2.6c0,0.5,0.5,1.3,1.7,0.6C7.4,34.8,7,32,8.1,30.8l0,0
					C7.6,30.8,7.2,31.1,6.7,31.2z"/>
			</g>
		</g>
		<g>
			<g>
				<path class="st0" d="M40,19.5c-1.3,0.1-5.6,0.2-8.1-1.5c0,0.1,0.1,0.2,0.2,0.4c1.5,2.1,3.6,3.2,5.5,3.6c0.9-0.1,1.6-0.2,2.4-0.6
					C41.5,21,40.9,19.4,40,19.5z"/>
			</g>
		</g>
		<g>
			<path class="st0" d="M17.6,3.6c1.9-0.9,4.5,0.7,6.8,3.6c0.4-0.1,0.7-0.4,1.1-0.5C23,3.6,20.1,2,18,2.9c-0.9,0.4-1.5,1-1.9,1.9
				C16.6,4.2,17.1,3.9,17.6,3.6z"/>
			<path class="st0" d="M29.5,24.8c-0.4,1.6-1.2,2.8-2.3,3.3c-0.6,0.2-1.2,0.2-1.8,0.1c1,0.4,1.8,0.4,2.7,0c1.1-0.5,1.9-1.6,2.4-3
				C30.1,25,29.7,24.9,29.5,24.8z"/>
		</g>
		<path class="st0" d="M25.5,5.1c-2.7-2.9-5.7-4.4-8.3-3.4c-4,1.6-4.9,9.2-1.9,16.9S24,31.2,28.1,29.7c1.6-0.6,2.7-2.1,3.2-4.1
			c0.2-0.7,0.6,4.4-3.6,6c-4.3,1.7-10.4-3.8-13.8-12.3c-3.4-8.6-2.4-17,1.9-18.8C18.5-0.9,22.3,1.2,25.5,5.1z"/>
		<path class="st0" d="M12.2,19c-2.1-5.5-2.3-11-0.7-14.2c-1.9,1.1-3.4,5.6-1.9,11.7l0,0c-2.3,1.3-3.4,1.7-5.8,1.1
			c-1.9-0.5-2.6-2.4-2.7-2.2c-1.7,3.3,2.1,5.8,4.3,5.7C5.2,24.6,3,26.5,2,27.8c-1.2,1.8-1.5,4.1-1.7,7.2c0,0.5,0.4,1.5,1.6,0.9
			c0.7-0.4,0.7-3.2,2.1-4.3c1.2-1,1.7-0.9,4-1.7c2.6-1,4.9-2.6,5.1-4.7c0.1,0.2,0.4,0.6,0.6,0.9c3.2,4.6,5.8,3.8,5.8,3.8
			C16.3,27.5,13.9,23.3,12.2,19z"/>
		<path class="st0" d="M38.8,5c0.2-0.7,0.6-2.4-0.2-3c-0.4-0.2-0.9,0.9-2.1,1.6C37.1,3.7,38.2,4.2,38.8,5z"/>
		<path class="st0" d="M40.5,23.4c-1.8,0-6.6-0.9-9.1-4.5c-2.4-3.6,0.2-7.5,4.6-6.3c6.9,1.9,7.2-1.7,7-2.9c-2-0.7-3.5-0.9-3.7-2.2
			c-0.6-2.8-3.3-3-4-3.4c-0.1-0.5-0.7-2.7-1.9-2.7c-0.6,0-0.1,2.3-1.9,3.9c-5.7,2.2-11.4,5-16.3,7.9c0.2,1.6,0.7,3.3,1.5,5
			c0.6,1.7,1.5,3.3,2.3,4.6c1.2,0,2.7,0,4.6,0.1c6.4,0.2,11.1,3.6,16.8,2.7C41.7,25.1,41.4,23.5,40.5,23.4z M36.7,7
			c0.4,0,0.5,0.2,0.5,0.6S37,8.1,36.6,8.1s-0.5-0.2-0.5-0.6C36.3,7.3,36.5,7,36.7,7z"/>
	</g>
</g>
</svg>
